<svg xmlns="http://www.w3.org/2000/svg" viewBox="0 0 800 800"><defs><style>.cls-1{fill:#fff;}.cls-2{fill:#afafaf;}.cls-3{fill:#c9c9c9;}.cls-4{fill:#ccc;}.cls-5{fill:#e2e2e2;}.cls-6{fill:#eaeaea;}</style></defs><title>image_placeholder</title><g id="Layer_1" data-name="Layer 1"><rect class="cls-1" width="800" height="800"/></g><g id="Layer_3" data-name="Layer 3"><ellipse class="cls-2" cx="647.6" cy="218.2" rx="63.09" ry="63.11"/><polygon class="cls-2" points="87.88 568 159.98 340.81 259.13 388.6 203.25 568 87.88 568"/><polygon class="cls-2" points="403.34 159.6 518.71 446.29 489.87 568 203.25 568 259.13 388.6 403.34 159.6"/><polygon class="cls-2" points="613.35 372.37 518.71 446.29 489.87 568 717 568 613.35 372.37"/><ellipse class="cls-3" cx="642.72" cy="212.11" rx="63.09" ry="63.11"/><polygon class="cls-4" points="83 561.9 155.11 334.72 254.25 382.5 198.37 561.9 83 561.9"/><polygon class="cls-5" points="398.46 153.51 513.83 440.19 484.99 561.9 198.37 561.9 254.25 382.5 398.46 153.51"/><polygon class="cls-6" points="608.47 366.27 513.83 440.19 484.99 561.9 712.12 561.9 608.47 366.27"/></g></svg>